<svg width="58" height="63" fill="none" xmlns="http://www.w3.org/2000/svg"><path d="M3.67 26V.8h4.824l14.868 18.144h-2.34V.8h5.76V26h-4.788L7.09 7.856h2.34V26H3.67Zm25.762 0L40.664.8h5.76L57.692 26h-6.12L42.356 3.752h2.304L35.408 26h-5.976Zm5.616-5.4 1.548-4.428h12.96L51.14 20.6H35.048ZM.61 62V36.8h4.824l10.728 17.784h-2.556L24.155 36.8h4.788l.072 25.2h-5.472l-.036-16.812h1.008l-8.424 14.148h-2.628L4.859 45.188h1.224V62H.611Zm45.579.432c-3.576 0-6.372-.996-8.388-2.988s-3.024-4.836-3.024-8.532V36.8h5.832v13.896c0 2.4.492 4.128 1.476 5.184s2.364 1.584 4.14 1.584c1.776 0 3.156-.528 4.14-1.584.984-1.056 1.476-2.784 1.476-5.184V36.8h5.76v14.112c0 3.696-1.008 6.54-3.024 8.532s-4.812 2.988-8.388 2.988Z" fill="#0F0E08"/></svg>